<svg width="44" height="44" viewBox="0 0 44 44" fill="none" xmlns="http://www.w3.org/2000/svg">
<circle cx="22" cy="22" r="20.35" fill="white" stroke="#CFCFCF" stroke-width="3.3"/>
<path d="M27.1516 27.3053C25.5843 27.3053 24.4379 26.7684 23.7123 25.6945C23.393 25.2592 23.1318 24.6787 22.9287 23.9531C22.7255 23.2275 22.6239 22.4294 22.6239 21.5587C22.6239 20.0495 23.0157 18.6564 23.7994 17.3793C24.583 16.1023 25.7294 15.1155 27.2386 14.4189L27.6304 15.2026C26.8758 15.5509 26.1938 16.0588 25.5843 16.7263C25.0038 17.3648 24.5975 18.0469 24.3653 18.7725C24.2202 19.1788 24.1476 19.6577 24.1476 20.2091C24.1476 20.6445 24.1767 20.9637 24.2347 21.1669C24.9893 20.2672 26.0487 19.8173 27.4128 19.8173C28.5737 19.8173 29.5024 20.1511 30.199 20.8186C30.8956 21.4571 31.2438 22.3713 31.2438 23.5613C31.2438 24.6932 30.8665 25.6075 30.1119 26.304C29.3573 26.9716 28.3705 27.3053 27.1516 27.3053ZM17.1385 27.3053C15.5712 27.3053 14.4248 26.7684 13.6992 25.6945C13.38 25.2592 13.1187 24.6787 12.9156 23.9531C12.7124 23.2275 12.6108 22.4294 12.6108 21.5587C12.6108 20.0495 13.0027 18.6564 13.7863 17.3793C14.5699 16.1023 15.7163 15.1155 17.2256 14.4189L17.6174 15.2026C16.8628 15.5509 16.1807 16.0588 15.5712 16.7263C14.9908 17.3648 14.5844 18.0469 14.3522 18.7725C14.2071 19.1788 14.1346 19.6577 14.1346 20.2091C14.1346 20.6445 14.1636 20.9637 14.2216 21.1669C14.9762 20.2672 16.0356 19.8173 17.3997 19.8173C18.5606 19.8173 19.4894 20.1511 20.1859 20.8186C20.8825 21.4571 21.2308 22.3713 21.2308 23.5613C21.2308 24.6932 20.8535 25.6075 20.0989 26.304C19.3443 26.9716 18.3575 27.3053 17.1385 27.3053Z" fill="black"/>
</svg>
