<svg width="1896" height="521" viewBox="0 0 1896 521" fill="none" xmlns="http://www.w3.org/2000/svg">
<g clip-path="url(#clip0_923_1937)">
<rect width="1896" height="521" fill="white"/>
<rect x="-2" width="1900" height="521" fill="#03585A"/>
<path d="M24.3055 421V170.685H-34.808V117.279H87.4958V421H24.3055ZM245.71 425.892C221.521 425.892 200.186 419.369 181.705 406.324C163.495 393.278 149.226 374.932 138.898 351.287C128.571 327.641 123.407 300.191 123.407 268.936C123.407 237.408 128.435 209.958 138.491 186.584C148.819 163.211 163.087 145.001 181.297 131.955C199.778 118.91 221.114 112.387 245.303 112.387C270.035 112.387 291.506 118.91 309.716 131.955C328.197 145.001 342.466 163.347 352.522 186.992C362.85 210.366 368.014 237.68 368.014 268.936C368.014 300.191 362.85 327.641 352.522 351.287C342.466 374.66 328.197 393.006 309.716 406.324C291.506 419.369 270.171 425.892 245.71 425.892ZM246.118 368.817C258.62 368.817 269.22 364.876 277.917 356.994C286.614 349.113 293.273 337.698 297.893 322.749C302.514 307.801 304.824 289.863 304.824 268.936C304.824 248.008 302.514 230.206 297.893 215.53C293.273 200.581 286.478 189.166 277.509 181.285C268.812 173.403 258.077 169.462 245.303 169.462C232.801 169.462 222.201 173.403 213.504 181.285C204.807 189.166 198.148 200.581 193.527 215.53C188.907 230.206 186.597 248.008 186.597 268.936C186.597 289.591 188.907 307.393 193.527 322.342C198.148 337.29 204.807 348.841 213.504 356.994C222.473 364.876 233.344 368.817 246.118 368.817ZM510.782 425.892C486.593 425.892 465.257 419.369 446.776 406.324C428.566 393.278 414.297 374.932 403.97 351.287C393.642 327.641 388.478 300.191 388.478 268.936C388.478 237.408 393.506 209.958 403.562 186.584C413.89 163.211 428.158 145.001 446.368 131.955C464.85 118.91 486.185 112.387 510.374 112.387C535.106 112.387 556.577 118.91 574.787 131.955C593.269 145.001 607.537 163.347 617.593 186.992C627.921 210.366 633.085 237.68 633.085 268.936C633.085 300.191 627.921 327.641 617.593 351.287C607.537 374.66 593.269 393.006 574.787 406.324C556.577 419.369 535.242 425.892 510.782 425.892ZM511.189 368.817C523.691 368.817 534.291 364.876 542.988 356.994C551.685 349.113 558.344 337.698 562.964 322.749C567.585 307.801 569.895 289.863 569.895 268.936C569.895 248.008 567.585 230.206 562.964 215.53C558.344 200.581 551.549 189.166 542.58 181.285C533.883 173.403 523.148 169.462 510.374 169.462C497.872 169.462 487.272 173.403 478.575 181.285C469.878 189.166 463.219 200.581 458.599 215.53C453.978 230.206 451.668 248.008 451.668 268.936C451.668 289.591 453.978 307.393 458.599 322.342C463.219 337.29 469.878 348.841 478.575 356.994C487.544 364.876 498.415 368.817 511.189 368.817ZM775.853 425.892C751.664 425.892 730.328 419.369 711.847 406.324C693.637 393.278 679.369 374.932 669.041 351.287C658.713 327.641 653.549 300.191 653.549 268.936C653.549 237.408 658.577 209.958 668.633 186.584C678.961 163.211 693.23 145.001 711.439 131.955C729.921 118.91 751.256 112.387 775.445 112.387C800.178 112.387 821.649 118.91 839.858 131.955C858.34 145.001 872.609 163.347 882.665 186.992C892.993 210.366 898.156 237.68 898.156 268.936C898.156 300.191 892.993 327.641 882.665 351.287C872.609 374.66 858.34 393.006 839.858 406.324C821.649 419.369 800.313 425.892 775.853 425.892ZM776.26 368.817C788.763 368.817 799.362 364.876 808.059 356.994C816.756 349.113 823.415 337.698 828.036 322.749C832.656 307.801 834.966 289.863 834.966 268.936C834.966 248.008 832.656 230.206 828.036 215.53C823.415 200.581 816.621 189.166 807.652 181.285C798.954 173.403 788.219 169.462 775.445 169.462C762.943 169.462 752.343 173.403 743.646 181.285C734.949 189.166 728.29 200.581 723.67 215.53C719.049 230.206 716.739 248.008 716.739 268.936C716.739 289.591 719.049 307.393 723.67 322.342C728.29 337.29 734.949 348.841 743.646 356.994C752.615 364.876 763.486 368.817 776.26 368.817ZM1040.92 425.892C1016.73 425.892 995.4 419.369 976.918 406.324C958.708 393.278 944.44 374.932 934.112 351.287C923.784 327.641 918.62 300.191 918.62 268.936C918.62 237.408 923.648 209.958 933.704 186.584C944.032 163.211 958.301 145.001 976.51 131.955C994.992 118.91 1016.33 112.387 1040.52 112.387C1065.25 112.387 1086.72 118.91 1104.93 131.955C1123.41 145.001 1137.68 163.347 1147.74 186.992C1158.06 210.366 1163.23 237.68 1163.23 268.936C1163.23 300.191 1158.06 327.641 1147.74 351.287C1137.68 374.66 1123.41 393.006 1104.93 406.324C1086.72 419.369 1065.38 425.892 1040.92 425.892ZM1041.33 368.817C1053.83 368.817 1064.43 364.876 1073.13 356.994C1081.83 349.113 1088.49 337.698 1093.11 322.749C1097.73 307.801 1100.04 289.863 1100.04 268.936C1100.04 248.008 1097.73 230.206 1093.11 215.53C1088.49 200.581 1081.69 189.166 1072.72 181.285C1064.03 173.403 1053.29 169.462 1040.52 169.462C1028.01 169.462 1017.41 173.403 1008.72 181.285C1000.02 189.166 993.361 200.581 988.741 215.53C984.12 230.206 981.81 248.008 981.81 268.936C981.81 289.591 984.12 307.393 988.741 322.342C993.361 337.29 1000.02 348.841 1008.72 356.994C1017.69 364.876 1028.56 368.817 1041.33 368.817ZM1306 425.892C1281.81 425.892 1260.47 419.369 1241.99 406.324C1223.78 393.278 1209.51 374.932 1199.18 351.287C1188.86 327.641 1183.69 300.191 1183.69 268.936C1183.69 237.408 1188.72 209.958 1198.78 186.584C1209.1 163.211 1223.37 145.001 1241.58 131.955C1260.06 118.91 1281.4 112.387 1305.59 112.387C1330.32 112.387 1351.79 118.91 1370 131.955C1388.48 145.001 1402.75 163.347 1412.81 186.992C1423.13 210.366 1428.3 237.68 1428.3 268.936C1428.3 300.191 1423.13 327.641 1412.81 351.287C1402.75 374.66 1388.48 393.006 1370 406.324C1351.79 419.369 1330.46 425.892 1306 425.892ZM1306.4 368.817C1318.9 368.817 1329.5 364.876 1338.2 356.994C1346.9 349.113 1353.56 337.698 1358.18 322.749C1362.8 307.801 1365.11 289.863 1365.11 268.936C1365.11 248.008 1362.8 230.206 1358.18 215.53C1353.56 200.581 1346.76 189.166 1337.79 181.285C1329.1 173.403 1318.36 169.462 1305.59 169.462C1293.09 169.462 1282.49 173.403 1273.79 181.285C1265.09 189.166 1258.43 200.581 1253.81 215.53C1249.19 230.206 1246.88 248.008 1246.88 268.936C1246.88 289.591 1249.19 307.393 1253.81 322.342C1258.43 337.29 1265.09 348.841 1273.79 356.994C1282.76 364.876 1293.63 368.817 1306.4 368.817ZM1571.07 425.892C1546.88 425.892 1525.54 419.369 1507.06 406.324C1488.85 393.278 1474.58 374.932 1464.25 351.287C1453.93 327.641 1448.76 300.191 1448.76 268.936C1448.76 237.408 1453.79 209.958 1463.85 186.584C1474.17 163.211 1488.44 145.001 1506.65 131.955C1525.13 118.91 1546.47 112.387 1570.66 112.387C1595.39 112.387 1616.86 118.91 1635.07 131.955C1653.55 145.001 1667.82 163.347 1677.88 186.992C1688.21 210.366 1693.37 237.68 1693.37 268.936C1693.37 300.191 1688.21 327.641 1677.88 351.287C1667.82 374.66 1653.55 393.006 1635.07 406.324C1616.86 419.369 1595.53 425.892 1571.07 425.892ZM1571.47 368.817C1583.98 368.817 1594.58 364.876 1603.27 356.994C1611.97 349.113 1618.63 337.698 1623.25 322.749C1627.87 307.801 1630.18 289.863 1630.18 268.936C1630.18 248.008 1627.87 230.206 1623.25 215.53C1618.63 200.581 1611.83 189.166 1602.87 181.285C1594.17 173.403 1583.43 169.462 1570.66 169.462C1558.16 169.462 1547.56 173.403 1538.86 181.285C1530.16 189.166 1523.5 200.581 1518.88 215.53C1514.26 230.206 1511.95 248.008 1511.95 268.936C1511.95 289.591 1514.26 307.393 1518.88 322.342C1523.5 337.29 1530.16 348.841 1538.86 356.994C1547.83 364.876 1558.7 368.817 1571.47 368.817ZM1806.38 421V344.356H1729.73V293.396H1806.38V217.16H1857.34V293.396H1933.57V344.356H1857.34V421H1806.38Z" fill="url(#paint0_linear_923_1937)"/>
</g>
<defs>
<linearGradient id="paint0_linear_923_1937" x1="963" y1="-797" x2="963" y2="638.5" gradientUnits="userSpaceOnUse">
<stop stop-color="#14A4AD"/>
<stop offset="0.844453" stop-color="#03585A"/>
</linearGradient>
<clipPath id="clip0_923_1937">
<rect width="1896" height="521" fill="white"/>
</clipPath>
</defs>
</svg>
