<svg width="1900" height="397" viewBox="0 0 1900 397" fill="none" xmlns="http://www.w3.org/2000/svg">
<g clip-path="url(#clip0_504_1828)">
<rect width="1900" height="396.97" fill="#03585A"/>
<rect x="687.029" y="-176.349" width="109" height="749" transform="rotate(-25.1461 687.029 -176.349)" fill="url(#paint0_linear_504_1828)"/>
<path d="M5.39159 -19.8961C19.5926 -27.0001 389 -27 389 -27V65.3507H19.5919V100.87C19.5919 100.87 72.3454 100.75 104.846 107.974C141.177 116.049 168.39 122.762 190.085 143.494C214.569 166.889 230.456 191.352 239.813 228.74C246.924 257.156 239.813 498.688 239.813 498.688H140.358C140.358 498.688 147.462 250.052 140.358 214.532C136.708 196.284 97.7347 193.221 97.7347 193.221C97.7347 193.221 26.6592 201.906 -8.82372 186.117C-50.3949 167.619 -66.0167 145.87 -72.7532 100.87C-81.2106 44.3745 -45.6976 5.66122 5.39159 -19.8961Z" fill="url(#paint1_linear_504_1828)"/>
<path d="M1784.12 -52.6295L1689.06 -73L1628.65 208.911C1614.81 273.516 1631.24 375.321 1782.28 419.973C1825.69 432.806 1855.09 430.223 1897.01 419.985C1969.64 402.242 2037.41 328.315 2026.29 244.975C2016.35 170.48 1954.12 82.0818 1895.62 69.5461L1793.24 47.6087L1777.86 119.376C1777.86 119.376 1844.47 130.652 1878 151.77C1910.21 172.064 1922.89 191.253 1931.22 224.604C1938.89 255.262 1925.98 280.512 1906.29 305.261C1889.59 326.254 1851 357.941 1798.64 343.622C1750.71 330.514 1718.75 298.991 1717.42 258.647C1716.4 227.715 1784.12 -52.6295 1784.12 -52.6295Z" fill="url(#paint2_linear_504_1828)"/>
</g>
<defs>
<linearGradient id="paint0_linear_504_1828" x1="736.84" y1="53.9969" x2="1192.96" y2="224.288" gradientUnits="userSpaceOnUse">
<stop stop-color="#03585A"/>
<stop offset="1" stop-color="#14A4AD"/>
</linearGradient>
<linearGradient id="paint1_linear_504_1828" x1="3" y1="64.5" x2="328.5" y2="771" gradientUnits="userSpaceOnUse">
<stop stop-color="#03585A"/>
<stop offset="1" stop-color="#14A4AD"/>
</linearGradient>
<linearGradient id="paint2_linear_504_1828" x1="1931.93" y1="11.7699" x2="1746.89" y2="819.076" gradientUnits="userSpaceOnUse">
<stop stop-color="#03585A"/>
<stop offset="1" stop-color="#14A4AD"/>
</linearGradient>
<clipPath id="clip0_504_1828">
<rect width="1900" height="396.97" fill="white"/>
</clipPath>
</defs>
</svg>
